<?xml version="1.0" encoding="UTF-8" standalone="no"?>
<!DOCTYPE svg PUBLIC "-//W3C//DTD SVG 1.1//EN" "http://www.w3.org/Graphics/SVG/1.1/DTD/svg11.dtd">
<svg width="100%" height="100%" viewBox="0 0 241 83" version="1.1" xmlns="http://www.w3.org/2000/svg" xmlns:xlink="http://www.w3.org/1999/xlink" xml:space="preserve" xmlns:serif="http://www.serif.com/" style="fill-rule:evenodd;clip-rule:evenodd;stroke-linejoin:round;stroke-miterlimit:2;">
    <g transform="matrix(1,0,0,1,-76.7931,-210.921)">
        <g>
            <g transform="matrix(1,0,0,1,-0.446778,0)">
                <g transform="matrix(1.12947,0,0,1.11742,-10,-23.9549)">
                    <rect x="77.24" y="210.195" width="53.305" height="53.305" style="fill:rgb(189,26,35);"/>
                </g>
                <g transform="matrix(1.12947,0,0,1.11742,50.2059,-23.9549)">
                    <rect x="77.24" y="210.195" width="53.305" height="53.305" style="fill:rgb(29,34,44);"/>
                </g>
                <g transform="matrix(1.12947,0,0,1.11742,170.618,-23.8391)">
                    <rect x="77.24" y="210.195" width="53.305" height="53.305" style="fill:rgb(248,239,232);"/>
                </g>
                <g transform="matrix(1.12947,0,0,1.11742,110.412,-23.9549)">
                    <rect x="77.24" y="210.195" width="53.305" height="53.305" style="fill:rgb(39,196,151);"/>
                </g>
            </g>
            <g transform="matrix(4.5159,0,0,0.423321,-272.014,181.621)">
                <rect x="77.24" y="210.195" width="53.305" height="53.305" style="fill:white;"/>
            </g>
        </g>
    </g>
</svg>
